# xmcd
#
# Track frame offsets:
#	150
#	19372
#	36075
#	55910
#	75455
#	88997
#	98995
#	114225
#	134667
#	153222
#	173192
#	190985
#	210947
#	226365
#	245180
#
# Disc length: 3494 seconds
#
# Revision: 0
# Processed by: cddbd v1.4PL0 Copyright (c) Steve Scherf et al.
# Submitted via: audiograbber 1.80
#
DISCID=c80da40f
DTITLE=Enrico Caruso - Complete Recordings Vol.11
DYEAR=1900
DGENRE=
TTITLE0=Ingemisco
TTITLE1=Angelo casto e bel
TTITLE2=Pecche?
TTITLE3=Si vous l'aviez compris
TTITLE4=Serenade Francaise
TTITLE5=Luna d'estate
TTITLE6='O sole mio
TTITLE7=Inspirez-moi, race divine
TTITLE8=O Souverain, o Juge, o Pere
TTITLE9=La procession
TTITLE10=Vecchia zimarra, senti
TTITLE11=Mia sposa sara la mia bandiera
TTITLE12=Ah, la paterna mano
TTITLE13=Cantique de noel
TTITLE14=Olden Times
EXTD=
EXTT0=
EXTT1=
EXTT2=
EXTT3=
EXTT4=
EXTT5=
EXTT6=
EXTT7=
EXTT8=
EXTT9=
EXTT10=
EXTT11=
EXTT12=
EXTT13=
EXTT14=
PLAYORDER=
